<svg xmlns="http://www.w3.org/2000/svg" viewBox="0 0 1800 1100" role="img" aria-label="Cinematic China mountain landscape">
  <defs>
    <linearGradient id="sky" x1="0" y1="0" x2="0" y2="1">
      <stop offset="0" stop-color="#031112"/>
      <stop offset="0.42" stop-color="#082829"/>
      <stop offset="1" stop-color="#123f3c"/>
    </linearGradient>
    <radialGradient id="sun" cx="70%" cy="28%" r="36%">
      <stop offset="0" stop-color="#e8c27a" stop-opacity=".95"/>
      <stop offset=".23" stop-color="#d6a85a" stop-opacity=".45"/>
      <stop offset=".55" stop-color="#d6a85a" stop-opacity=".08"/>
      <stop offset="1" stop-color="#d6a85a" stop-opacity="0"/>
    </radialGradient>
    <linearGradient id="water" x1="0" y1="0" x2="1" y2="0">
      <stop offset="0" stop-color="#062020"/>
      <stop offset=".55" stop-color="#0f5551"/>
      <stop offset="1" stop-color="#041515"/>
    </linearGradient>
    <filter id="blur">
      <feGaussianBlur stdDeviation="18"/>
    </filter>
  </defs>
  <rect width="1800" height="1100" fill="url(#sky)"/>
  <rect width="1800" height="1100" fill="url(#sun)"/>
  <g opacity=".34" filter="url(#blur)">
    <ellipse cx="930" cy="380" rx="560" ry="140" fill="#f7f2e8"/>
    <ellipse cx="420" cy="500" rx="420" ry="120" fill="#b9d7d2"/>
  </g>
  <path d="M0 610 C135 520 250 570 350 455 C470 315 565 548 705 410 C815 300 910 452 1010 378 C1180 252 1305 438 1430 320 C1550 205 1642 360 1800 275 L1800 1100 L0 1100 Z" fill="#082526" opacity=".92"/>
  <path d="M0 690 C145 590 250 645 360 540 C505 400 575 648 760 492 C910 365 1005 580 1160 440 C1320 298 1435 560 1570 430 C1665 340 1735 410 1800 360 L1800 1100 L0 1100 Z" fill="#0b3432" opacity=".88"/>
  <path d="M0 760 C190 662 340 720 520 620 C700 520 820 675 990 560 C1180 430 1370 660 1540 540 C1665 455 1745 510 1800 492 L1800 1100 L0 1100 Z" fill="#0f4b47" opacity=".82"/>
  <path d="M0 790 C250 815 415 760 640 805 C860 850 1040 765 1250 820 C1460 875 1630 812 1800 835 L1800 1100 L0 1100 Z" fill="url(#water)" opacity=".86"/>
  <g opacity=".24" stroke="#e8c27a" stroke-width="2">
    <path d="M120 842 C410 790 550 846 790 815 C1010 786 1260 844 1510 818 C1618 806 1710 816 1800 802" fill="none"/>
    <path d="M250 900 C510 864 740 910 980 878 C1240 842 1440 914 1710 870" fill="none"/>
  </g>
  <g fill="#f8f3ea" opacity=".82">
    <path d="M1340 535 h12 v-58 h10 v58 h20 v16 h-42z"/>
    <path d="M1290 550 h118 v20 h-118z"/>
    <path d="M1310 570 h78 v88 h-78z"/>
    <path d="M1268 658 h144 v22 h-144z"/>
    <path d="M1328 604 h28 v54 h-28z" fill="#0b2a2a"/>
  </g>
  <rect width="1800" height="1100" fill="rgba(0,0,0,.22)"/>
</svg>
